<?xml version="1.0" encoding="utf-8"?>
<!-- Generator: Adobe Illustrator 24.0.3, SVG Export Plug-In . SVG Version: 6.00 Build 0)  -->
<svg version="1.1" id="Ebene_1" xmlns="http://www.w3.org/2000/svg" xmlns:xlink="http://www.w3.org/1999/xlink" x="0px" y="0px"
	 viewBox="0 0 500 500" style="enable-background:new 0 0 500 500;" xml:space="preserve">
<style type="text/css">
	.st0{fill:#C6E2E6;}
	.st1{fill:none;stroke:#FFFFFF;stroke-width:4;stroke-miterlimit:10;}
	.st2{fill:#F18D5D;stroke:#FFFFFF;stroke-width:4;stroke-miterlimit:10;}
	.st3{fill:#FFFFFF;}
	.st4{fill:#F18D5D;stroke:#F18D5D;stroke-width:4;stroke-linejoin:round;stroke-miterlimit:10;}
	.st5{opacity:0.3;fill:none;stroke:#F18D5D;stroke-width:4;stroke-linejoin:round;stroke-miterlimit:10;enable-background:new    ;}
	.st6{fill:none;stroke:#10718F;stroke-width:5;stroke-linecap:round;stroke-linejoin:round;stroke-miterlimit:10;}
	.st7{fill:none;stroke:#10718F;stroke-width:4;stroke-linejoin:round;stroke-miterlimit:10;}
	.st8{fill:#0F576D;}
</style>
<g id="Ebene_2_1_">
</g>
<g>
	<circle class="st0" cx="249.2" cy="248.2" r="240.8"/>
	<circle class="st1" cx="249.2" cy="248.2" r="240.8"/>
	<circle class="st0" cx="249.2" cy="248.2" r="240.8"/>
</g>
<path class="st2" d="M241.9,142.7c-89.2,17.9-126.7,76.4-141.2,179.3c-12.1,86,4.5,174.1,21.3,165.2c0,0.6,1.8-1.3,1.8-1.3
	c1.2-1.2,2.5-2.9,3.7-5.2c47.8-90.7,129-73.9,177.2-136.5C421.7,191.7,241.9,142.7,241.9,142.7z"/>
<g>
	<path class="st1" d="M285.5,196.3c0,0,26.1,71.5-83.7,170.6c-19.8,17.9-82.8,48.6-82.9,119.2"/>
</g>
<path class="st3" d="M314.9,73.9c-23,0-35.8,11-47.7,11c-11.9,0-24.7-11-47.7-11c-20.4,0-31.1,17.3-31.1,31.1
	c0,64.6,70.3,98.7,78.9,98.7c8.5,0,78.8-34.2,78.8-98.8C346,91.2,335.3,73.9,314.9,73.9z"/>
<polygon class="st4" points="279.3,165 267.1,185.7 255,165 267.1,155.6 "/>
<circle class="st5" cx="232.3" cy="119.3" r="22.5"/>
<path class="st6" d="M242.5,112.5c4.7,4.7,4.7,12.3,0,16.9c-4.7,4.7-12.3,4.7-16.9,0"/>
<circle class="st5" cx="302" cy="119.3" r="22.5"/>
<path class="st6" d="M312.2,112.5c4.7,4.7,4.7,12.3,0,16.9c-4.7,4.7-12.3,4.7-16.9,0"/>
<circle class="st7" cx="232.3" cy="119.3" r="22.5"/>
<circle class="st7" cx="302" cy="119.3" r="22.5"/>
<g>
	<polygon class="st8" points="132.8,388.2 161.2,388.3 130.5,329.5 156.8,295.1 130.8,295.1 100.4,336.6 100.6,257.7 76,257.6 
		75.7,388.1 100.3,388.1 100.3,368.8 114.4,350.5 	"/>
	<path class="st8" d="M226.5,295.3l-0.1,56.1c0,4.7-1.3,8.4-3.8,10.9s-6,3.8-10.6,3.8s-8.2-1.3-10.7-3.7c-2.5-2.5-3.8-6-3.8-10.5
		l0.1-56.6l-24.6-0.1l-0.1,57.5c0,11.8,2.7,20.9,8.1,27.3c5.4,6.4,13.1,9.7,23.1,9.7c6.2,0,11.3-1.8,15.2-5.5c3-2.9,5.3-6,7-9.4
		v13.6l24.5,0.1l0.2-93.1L226.5,295.3z"/>
	<path class="st8" d="M323.2,294.2c-5,0-9.5,1.5-13.6,4.6c-3.1,2.4-5.8,5.5-8.1,9.3v-12.7l-26.4-0.1l-0.2,93.1l26.4,0.1l0.1-52.7
		c0-5.7,1.4-10.1,4.1-13.3c2.7-3.2,6.6-4.8,11.5-4.8c4.5,0,8,1.2,10.4,3.6l14.4-20C337.2,296.6,331,294.2,323.2,294.2z"/>
	<path class="st8" d="M417.2,304.9c-7-7-16.9-10.5-29.7-10.6c-12.8,0-22.7,3.4-29.7,10.4s-10.5,16.8-10.6,29.6v15.2
		c0,12.9,3.4,22.8,10.4,29.9s16.9,10.7,29.7,10.7c12.8,0,22.7-3.5,29.7-10.5s10.5-16.9,10.6-29.7v-15.4
		C427.7,321.7,424.2,311.9,417.2,304.9z M403,349.9c0,5.3-1.4,9.3-4.2,12.2c-2.8,2.9-6.6,4.3-11.6,4.3s-8.8-1.5-11.5-4.4
		s-4-7-4-12.3v-15.4c0-5.2,1.4-9.2,4.1-12.1s6.5-4.3,11.5-4.3s8.8,1.5,11.6,4.3c2.7,2.9,4.1,6.9,4.1,12.1V349.9z"/>
</g>
<path class="st2" d="M342,44.4c-18.2-11.9-43.3-18-74.8-18c0,0,0,0-0.1,0c-69,0-107,29-106.9,81.6c0,26.7,13.9,55.6,38,79.2
	c22,21.5,48.4,34.9,69,34.9l0,0c21.7,0,48.5-13.4,70.1-34.9c23.4-23.4,36.8-52.2,36.8-79.2C374.1,79.8,363.3,58.4,342,44.4z
	 M227.3,174.3c-15.5-14-34-37.3-34-69.3c0-6.1,2.5-12.6,6.7-17.4c3.4-3.9,9.6-8.6,19.4-8.6l0,0c12.5,0,21.7,3.5,29.8,6.5
	c6.4,2.4,12,4.5,17.9,4.5l0,0c5.9,0,11.4-2.1,17.9-4.5c8.1-3.1,17.4-6.5,29.9-6.5l0,0c17.8,0,26.1,15.5,26.1,26
	c0,32-18.5,55.4-33.9,69.3c-18,16.2-36.3,24.1-39.9,24.4C263.6,198.3,245.2,190.5,227.3,174.3z"/>
</svg>
