<svg xmlns="http://www.w3.org/2000/svg" viewBox="0 0 56.69 56.69"><defs><style>.cls-1{fill:#ead86e;}.cls-2{fill:#fff;}.cls-3{fill:#dadada;}.cls-4{isolation:isolate;}.cls-5{fill:#ec5f5f;}.cls-6{fill:#f6f6f6;}.cls-7{fill:#689cbf;}.cls-8{fill:#575756;}</style></defs><title>ic_market</title><g id="Ebene_1" data-name="Ebene 1"><rect class="cls-1" x="6.44" y="12.23" width="43.42" height="39.23" rx="2.83"/><rect class="cls-2" x="31.31" y="29.56" width="13.1" height="21.91"/><rect class="cls-2" x="11.23" y="29.73" width="15.32" height="11.22"/><rect class="cls-3" x="7.01" y="4.88" width="41.94" height="5.15"/><g class="cls-4"><polygon class="cls-5" points="8.24 19.26 2.56 19.26 7.04 9.94 11.72 9.94 8.24 19.26"/></g><g class="cls-4"><polygon class="cls-6" points="13.93 19.26 8.24 19.26 11.72 9.94 16.42 9.94 13.93 19.26"/></g><g class="cls-4"><polygon class="cls-5" points="19.62 19.26 13.93 19.26 16.42 9.94 21.11 9.94 19.62 19.26"/></g><g class="cls-4"><polygon class="cls-6" points="25.31 19.26 19.62 19.26 21.11 9.94 25.81 9.94 25.31 19.26"/></g><g class="cls-4"><polygon class="cls-5" points="53.79 19.26 48.11 19.26 44.62 9.94 49.31 9.94 53.79 19.26"/></g><g class="cls-4"><polygon class="cls-6" points="48.1 19.26 42.42 19.26 39.93 9.94 44.61 9.94 48.1 19.26"/></g><g class="cls-4"><polygon class="cls-5" points="42.41 19.26 36.73 19.26 35.23 9.94 39.92 9.94 42.41 19.26"/></g><g class="cls-4"><polygon class="cls-6" points="36.71 19.26 31.04 19.26 30.54 9.94 35.22 9.94 36.71 19.26"/></g><g class="cls-4"><polygon class="cls-5" points="31.02 19.26 25.35 19.26 25.84 9.94 30.52 9.94 31.02 19.26"/></g><path class="cls-5" d="M2.56,19.25a2.85,2.85,0,0,0,5.69,0Z"/><path class="cls-6" d="M8.25,19.25a2.85,2.85,0,0,0,5.7,0Z"/><path class="cls-5" d="M13.94,19.25a2.85,2.85,0,0,0,5.7,0Z"/><path class="cls-6" d="M19.64,19.25a2.85,2.85,0,0,0,5.7,0Z"/><path class="cls-5" d="M25.33,19.25a2.85,2.85,0,0,0,5.69,0Z"/><path class="cls-6" d="M31,19.25a2.85,2.85,0,0,0,5.7,0Z"/><path class="cls-5" d="M36.7,19.25a2.85,2.85,0,0,0,5.7,0Z"/><path class="cls-6" d="M42.41,19.25a2.85,2.85,0,0,0,5.7,0Z"/><path class="cls-5" d="M48.1,19.25a2.85,2.85,0,0,0,5.69,0Z"/><rect class="cls-7" x="34.53" y="35.7" width="7.7" height="3.37"/><rect class="cls-7" x="9.66" y="35.54" width="6.97" height="3.79" transform="translate(50.57 24.29) rotate(90)"/><rect class="cls-5" x="13.81" y="37" width="5.11" height="2.72" transform="translate(54.73 21.99) rotate(90)"/><rect class="cls-5" x="21.7" y="36.07" width="6.33" height="3.37" transform="translate(62.62 12.89) rotate(90)"/><path class="cls-8" d="M34.62,35.82a.16.16,0,0,1-.07-.3l3.86-1.93.07,0,3.79,1.9a.16.16,0,0,1,.07.21.16.16,0,0,1-.22.07l-3.71-1.86L34.69,35.8Z"/></g></svg>